<svg xmlns="http://www.w3.org/2000/svg"  viewBox="0 0 16 16" fill="none">
  <rect width="16" height="16" rx="8" fill="#ECF0FF"/>
  <path d="M0 8C0 3.58172 3.58172 0 8 0C12.4183 0 16 3.58172 16 8C16 12.4183 12.4183 16 8 16C3.58172 16 0 12.4183 0 8Z" fill="#E0E8FF"/>
  <path d="M13.946 4.84625C13.8254 4.78739 13.7735 4.89951 13.703 4.9565C13.6792 4.97519 13.6586 4.99948 13.6385 5.02097C13.4624 5.2097 13.2569 5.33303 12.9887 5.31808C12.5958 5.29659 12.2609 5.41992 11.9647 5.72079C11.9016 5.34985 11.6923 5.12841 11.3742 4.9864C11.2075 4.91259 11.0388 4.83877 10.9225 4.67807C10.8407 4.56409 10.8188 4.43702 10.7776 4.31182C10.752 4.23614 10.7258 4.15859 10.6389 4.14551C10.5445 4.13056 10.5076 4.20998 10.4707 4.27631C10.3222 4.54727 10.2652 4.84625 10.2703 5.14897C10.2834 5.82914 10.5707 6.37104 11.1406 6.75694C11.2056 6.80086 11.2224 6.84568 11.2018 6.91016C11.1631 7.04282 11.1168 7.17179 11.0757 7.30444C11.05 7.38949 11.0112 7.40815 10.9206 7.37079C10.6076 7.24 10.3371 7.0466 10.0984 6.81205C9.69293 6.41964 9.32621 5.98614 8.86884 5.64697C8.7614 5.56754 8.65443 5.49374 8.54321 5.42366C8.07651 4.96958 8.60444 4.59679 8.72633 4.55287C8.85434 4.50709 8.77072 4.34825 8.35774 4.35012C7.94524 4.352 7.56733 4.49027 7.08613 4.67434C7.01562 4.70236 6.94181 4.72292 6.86565 4.7388C6.42885 4.65658 5.97526 4.63789 5.50108 4.69115C4.6088 4.79113 3.89591 5.21344 3.37175 5.93471C2.74249 6.80086 2.5944 7.78563 2.77566 8.81337C2.96626 9.8953 3.51798 10.7923 4.36634 11.493C5.24554 12.219 6.25836 12.575 7.41363 12.5067C8.11531 12.4666 8.89687 12.3722 9.77794 11.6257C10.0003 11.7359 10.2334 11.7799 10.6207 11.8135C10.9188 11.8415 11.2056 11.7986 11.4279 11.7527C11.776 11.679 11.7517 11.3566 11.626 11.2968C10.6058 10.8212 10.8295 11.0146 10.6258 10.8586C11.1444 10.2438 11.9259 9.6057 12.2315 7.53899C12.2553 7.37452 12.2347 7.27177 12.2315 7.13816C12.2296 7.05779 12.2478 7.02603 12.3403 7.0167C12.5958 6.98771 12.8439 6.91763 13.0719 6.79153C13.7329 6.42993 13.9992 5.83665 14.0622 5.12468C14.0716 5.0163 14.0604 4.90324 13.946 4.84625ZM8.18587 11.2529C7.19688 10.4746 6.71755 10.2186 6.5195 10.2298C6.33447 10.2401 6.36767 10.4522 6.40828 10.5905C6.45081 10.7269 6.50639 10.8212 6.58442 10.9408C6.63814 11.0202 6.67507 11.1389 6.5307 11.2267C6.2121 11.4248 5.65853 11.1604 5.63236 11.1473C4.98813 10.768 4.44949 10.2662 4.06969 9.58044C3.70344 8.9199 3.49041 8.21167 3.45538 7.4558C3.44603 7.27268 3.49976 7.20819 3.68102 7.17552C3.91973 7.1316 4.1664 7.12227 4.40511 7.15681C5.41418 7.30444 6.27328 7.75664 6.99319 8.47143C7.4043 8.87972 7.71543 9.36651 8.0359 9.84206C8.37645 10.3476 8.74317 10.8287 9.20987 11.223C9.37429 11.3613 9.50603 11.4669 9.6317 11.5444C9.2524 11.5864 8.61889 11.5958 8.18587 11.2529ZM8.65955 8.20048C8.65955 8.11916 8.72447 8.05472 8.80622 8.05472C8.82445 8.05472 8.84128 8.05845 8.85621 8.06405C8.8763 8.07151 8.89501 8.08275 8.9095 8.09954C8.93562 8.1248 8.95059 8.16216 8.95059 8.20048C8.95059 8.28175 8.88568 8.34624 8.80435 8.34624C8.7226 8.34624 8.65955 8.28175 8.65955 8.20048ZM10.1316 8.95726C10.0372 8.99558 9.94283 9.02921 9.85223 9.03294C9.71159 9.0395 9.55789 8.98247 9.47427 8.91244C9.34487 8.80404 9.2524 8.74329 9.21312 8.5527C9.19676 8.47143 9.20614 8.34624 9.22059 8.27429C9.25426 8.11916 9.21685 8.02013 9.10802 7.92953C9.01881 7.85572 8.9062 7.8361 8.78197 7.8361C8.73571 7.8361 8.69318 7.81553 8.66142 7.79869C8.60956 7.77253 8.56703 7.70809 8.6077 7.62868C8.62075 7.60342 8.68385 7.54085 8.69878 7.52961C8.86697 7.43341 9.06129 7.46517 9.24116 7.53712C9.40792 7.60529 9.53359 7.73048 9.71484 7.90709C9.90031 8.12107 9.9335 8.18087 10.0391 8.34059C10.1222 8.46674 10.1984 8.59566 10.2502 8.74329C10.2815 8.83485 10.2409 8.91053 10.1316 8.95726Z" fill="#4D6BFE"/>
</svg>