<svg viewBox="0 0 16 16" fill="none" xmlns="http://www.w3.org/2000/svg">
<rect width="16" height="16" rx="8" fill="#010103"/>
<path d="M12.3847 3.44814H13.2435ZM13.6729 3.44814C13.6729 3.92243 13.2884 4.30693 12.8141 4.30693H12.0928C12.0169 4.30693 11.9553 4.24537 11.9553 4.16944V3.44814C11.9553 2.97385 12.3398 2.58936 12.8141 2.58936C13.2884 2.58936 13.6729 2.97385 13.6729 3.44814Z" fill="#1783FF"/>
<path d="M5.50284 4.26877C5.50284 4.22321 5.4659 4.18628 5.42034 4.18628H4.26487C4.21931 4.18628 4.18237 4.22321 4.18237 4.26877V11.7625C4.18237 11.808 4.21931 11.845 4.26487 11.845H5.42034C5.4659 11.845 5.50284 11.808 5.50284 11.7625V9.99632L6.69429 8.80489L9.9003 11.3521C10.2804 11.6541 10.7467 11.8259 11.2304 11.8435C11.2759 11.8451 11.3129 11.808 11.3129 11.7625V10.3429C11.3129 10.2973 11.2759 10.2606 11.2304 10.2582C10.9175 10.2413 10.6166 10.1288 10.3688 9.93484L7.67402 7.82516L11.1721 4.3271C11.224 4.27514 11.1872 4.18628 11.1137 4.18628H9.4984C9.47652 4.18628 9.45554 4.19497 9.44007 4.21044L5.50284 8.14767V4.26877Z" fill="white"/>
</svg>
