<svg xmlns="http://www.w3.org/2000/svg" viewBox="0 0 16 16" fill="none"> <g clip-path="url(#clip0_49206_57335)"> <rect width="16" height="16" rx="8" fill="url(#paint0_linear_49206_57335)"/> <rect width="16" height="16" rx="8" fill="url(#paint1_linear_49206_57335)"/> <path d="M3.97283 8.83895C2.13076 7.4484 6.12326 4.90932 8.19599 3.74576C8.54199 3.55152 8.71499 3.45441 8.85526 3.47883C8.97427 3.49955 9.08376 3.5791 9.14023 3.68588C9.2068 3.81173 9.16694 4.01104 9.08722 4.40964L8.83377 5.67688C8.77721 5.9597 8.74893 6.10112 8.7821 6.20147C8.81302 6.29501 8.86517 6.3617 8.94851 6.41426C9.0379 6.47064 9.19168 6.47772 9.49922 6.49188H9.49923C10.2629 6.52705 11.3741 6.66798 12.0272 7.16096C13.8692 8.55151 9.87674 11.0906 7.80401 12.2542C7.45801 12.4484 7.28501 12.5455 7.14474 12.5211C7.02573 12.5004 6.91624 12.4208 6.85977 12.314C6.7932 12.1882 6.83306 11.9889 6.91278 11.5903L7.16623 10.323C7.22279 10.0402 7.25107 9.8988 7.2179 9.79844C7.18698 9.7049 7.13483 9.63821 7.05149 9.58566C6.9621 9.52927 6.80832 9.52219 6.50077 9.50803C5.73711 9.47286 4.62588 9.33193 3.97283 8.83895Z" fill="white"/> </g> <defs> <linearGradient id="paint0_linear_49206_57335" x1="13.6146" y1="15.5694" x2="0.334665" y2="3.92816" gradientUnits="userSpaceOnUse"> <stop stop-color="#32C5FF"/> <stop offset="0.25" stop-color="#5666F5"/> <stop offset="0.523727" stop-color="#8A57EA"/> <stop offset="0.820607" stop-color="#EB35CE"/> <stop offset="1" stop-color="#F7B500"/> </linearGradient> <linearGradient id="paint1_linear_49206_57335" x1="15.5" y1="15.5" x2="-1.3178" y2="4.5646" gradientUnits="userSpaceOnUse"> <stop stop-color="#32C5FF"/> <stop offset="0.25" stop-color="#5666F5"/> <stop offset="0.523727" stop-color="#8A57EA"/> <stop offset="0.820607" stop-color="#EB35CE"/> <stop offset="1" stop-color="#F7B500"/> </linearGradient> <clipPath id="clip0_49206_57335"> <rect width="16" height="16" rx="8" fill="white"/> </clipPath> </defs> </svg>