<svg xmlns="http://www.w3.org/2000/svg" width="14" height="14" fill="currentColor" viewBox="0 0 60 60" class="ant-dropdown-menu-item-icon"><path d="M25 25.75A2.25 2.25 0 0 1 27.25 28v14a2.25 2.25 0 0 1-4.5 0V28A2.25 2.25 0 0 1 25 25.75M37.25 28a2.25 2.25 0 0 0-4.5 0v14a2.25 2.25 0 0 0 4.5 0z"></path><path fill-rule="evenodd" d="M33.076 3.75h-6.152c-1.333 0-2.446 0-3.36.062-.951.065-1.85.205-2.721.566a8.25 8.25 0 0 0-4.465 4.465c-.36.871-.5 1.77-.566 2.72q-.036.546-.048 1.187H7a2.25 2.25 0 0 0 0 4.5h1.969l2.917 28.444c.149 1.45.274 2.667.454 3.66.19 1.038.467 2.005 1.012 2.907a8.25 8.25 0 0 0 3.546 3.201c.953.45 1.943.627 2.996.71 1.005.078 2.228.078 3.686.078h12.84c1.458 0 2.68 0 3.686-.078 1.053-.083 2.043-.26 2.996-.71a8.25 8.25 0 0 0 3.546-3.2c.544-.903.822-1.87 1.011-2.909.181-.992.306-2.208.455-3.659L51.03 17.25H53a2.25 2.25 0 0 0 0-4.5h-8.764a26 26 0 0 0-.048-1.186c-.065-.951-.205-1.85-.566-2.721a8.25 8.25 0 0 0-4.465-4.465c-.871-.36-1.77-.5-2.72-.566-.915-.062-2.028-.062-3.361-.062m6.66 9a20 20 0 0 0-.038-.88c-.05-.722-.138-1.074-.233-1.305a3.75 3.75 0 0 0-2.03-2.03c-.231-.095-.583-.184-1.305-.233-.743-.05-1.701-.052-3.13-.052h-6c-1.429 0-2.387.001-3.13.052-.722.05-1.074.138-1.305.233a3.75 3.75 0 0 0-2.03 2.03c-.095.231-.184.583-.233 1.305-.018.263-.03.552-.037.88zm6.771 4.5-2.861 27.9c-.16 1.558-.268 2.598-.414 3.397-.14.772-.288 1.142-.437 1.39a3.75 3.75 0 0 1-1.612 1.455c-.262.123-.645.232-1.427.293-.81.063-1.856.065-3.422.065H23.666c-1.567 0-2.612-.002-3.422-.065-.782-.06-1.166-.17-1.427-.293a3.75 3.75 0 0 1-1.612-1.455c-.15-.248-.297-.618-.437-1.39-.146-.799-.254-1.84-.414-3.397l-2.861-27.9z" clip-rule="evenodd"></path></svg>