<svg xmlns="http://www.w3.org/2000/svg" width="14" height="14" fill="currentColor" viewBox="0 0 60 60" class="ant-dropdown-menu-item-icon"><path d="M30 4.75h-8.697c-2.438 0-4.405 0-5.998.13-1.64.134-3.08.417-4.412 1.096a11.25 11.25 0 0 0-4.917 4.917c-.679 1.332-.962 2.773-1.096 4.413-.13 1.592-.13 3.56-.13 5.998v17.392c0 2.439 0 4.406.13 5.998.134 1.64.417 3.08 1.096 4.413a11.25 11.25 0 0 0 4.917 4.917c1.332.679 2.773.962 4.413 1.096 1.592.13 3.56.13 5.998.13h17.392c2.439 0 4.406 0 5.998-.13 1.64-.134 3.08-.417 4.413-1.096a11.25 11.25 0 0 0 4.917-4.917c.679-1.332.962-2.773 1.096-4.413.13-1.592.13-3.56.13-5.998V30a2.25 2.25 0 0 0-4.5 0v8.6c0 2.557-.002 4.34-.115 5.728-.111 1.362-.319 2.144-.62 2.736a6.75 6.75 0 0 1-2.95 2.95c-.593.302-1.375.51-2.737.62-1.388.114-3.17.116-5.728.116H21.4c-2.557 0-4.34-.002-5.728-.115-1.362-.111-2.144-.319-2.736-.62a6.75 6.75 0 0 1-2.95-2.95c-.302-.593-.51-1.375-.62-2.737-.114-1.388-.116-3.17-.116-5.728V21.4c0-2.557.002-4.34.115-5.728.111-1.362.319-2.144.62-2.736a6.75 6.75 0 0 1 2.95-2.95c.593.302 1.375.51 2.737-.62 1.388-.114 3.17-.116 5.727-.116H30a2.25 2.25 0 0 0 0-4.5"></path><path d="M18.409 38.409a2.25 2.25 0 0 0 3.182 3.182l31-31a2.25 2.25 0 1 0-3.182-3.182z"></path></svg>