<svg xmlns="http://www.w3.org/2000/svg" width="14" height="14" fill="currentColor" viewBox="0 0 60 60"><path d="m48.21 33.705 4.234-4.234c2.63-2.63 3.945-3.945 4.438-5.462a6.64 6.64 0 0 0 0-4.104c-.493-1.516-1.808-2.831-4.438-5.461l-6.888-6.888c-2.63-2.63-3.945-3.945-5.461-4.437a6.64 6.64 0 0 0-4.105 0c-1.516.492-2.831 1.807-5.461 4.437l-4.234 4.235c-.288.287-.432.431-.596.545a2.2 2.2 0 0 1-.47.247c-.186.072-.386.11-.786.184l-4.168.782c-6.42 1.203-9.63 1.805-11.132 3.47a6.64 6.64 0 0 0-1.65 5.338c.299 2.222 2.608 4.53 7.227 9.15l5.295 5.295L7.752 49.066a2.25 2.25 0 1 0 3.182 3.182l12.263-12.264 5.297 5.297c4.618 4.618 6.927 6.927 9.15 7.227a6.64 6.64 0 0 0 5.337-1.652c1.665-1.502 2.267-4.712 3.47-11.13l.782-4.169c.075-.4.112-.6.184-.787q.095-.25.247-.469c.114-.164.258-.308.545-.596"></path></svg>